/* XPM */
static char *a0b6c06de91d489ae7b4d5aa8b77d23frEX12udeLudeUD7y[] = {
/* columns rows colors chars-per-pixel */
"64 64 225 2 ",
"   c #341C00",
".  c #3A2401",
"X  c #3D3207",
"o  c #3E3210",
"O  c #3F371C",
"+  c #3A3424",
"@  c #4D1607",
"#  c #461819",
"$  c #442904",
"%  c #483607",
"&  c #4B350D",
"*  c #523301",
"=  c #543B02",
"-  c #523C0C",
";  c #442B1A",
":  c #56261D",
">  c #453414",
",  c #4A3515",
"<  c #463A13",
"1  c #493A14",
"2  c #46381D",
"3  c #4D3B1C",
"4  c #563B16",
"5  c #5C2F25",
"6  c #443921",
"7  c #4C3C23",
"8  c #4C3D2A",
"9  c #553525",
"0  c #523C23",
"q  c #583628",
"w  c #553C2A",
"e  c #5B3C2B",
"r  c #543833",
"t  c #5B3E34",
"y  c #613B2E",
"u  c #623F30",
"i  c #55400D",
"p  c #4E4116",
"a  c #554114",
"s  c #594215",
"d  c #54431A",
"f  c #59451C",
"g  c #6C571F",
"h  c #4E4224",
"j  c #4D432B",
"k  c #524225",
"l  c #5D4323",
"z  c #5A4B23",
"x  c #54432B",
"c  c #5A432D",
"v  c #55492C",
"b  c #5A4B2D",
"n  c #4B4334",
"m  c #5D4332",
"M  c #544A35",
"N  c #5C4D33",
"B  c #5E4439",
"V  c #5E4C3B",
"C  c #5D5135",
"Z  c #5E543A",
"A  c #614A2C",
"S  c #6A5523",
"D  c #6D5C25",
"F  c #6D5A2B",
"G  c #715D25",
"H  c #79552C",
"J  c #634434",
"K  c #644A36",
"L  c #6A4C37",
"P  c #644639",
"I  c #644B3A",
"U  c #694D3C",
"Y  c #625436",
"T  c #6C5B33",
"R  c #63543B",
"E  c #6B533C",
"W  c #65593D",
"Q  c #6D5A3D",
"!  c #735936",
"~  c #715C3F",
"^  c #7C5D3C",
"/  c #7B6529",
"(  c #7E682C",
")  c #796538",
"_  c #7B643E",
"`  c #4C4946",
"'  c #584642",
"]  c #544C45",
"[  c #554E4A",
"{  c #584D49",
"}  c #5F5847",
"|  c #56514B",
" . c #5C544C",
".. c #5B5551",
"X. c #595754",
"o. c #644D42",
"O. c #6B4F41",
"+. c #665243",
"@. c #6C5442",
"#. c #655B44",
"$. c #6C5B43",
"%. c #61574D",
"&. c #6D5749",
"*. c #635B4E",
"=. c #6C5C49",
"-. c #705644",
";. c #725C44",
":. c #745C4A",
">. c #645C52",
",. c #6F6046",
"<. c #6D624B",
"1. c #6C684E",
"2. c #746345",
"3. c #796644",
"4. c #74654A",
"5. c #78654C",
"6. c #77684C",
"7. c #79694C",
"8. c #6C6452",
"9. c #686457",
"0. c #6B655A",
"q. c #746652",
"w. c #796755",
"e. c #766952",
"r. c #7A6C55",
"t. c #7B6E59",
"y. c #7D7055",
"u. c #7D715A",
"i. c #6D6D64",
"p. c #766F61",
"a. c #787365",
"s. c #815D25",
"d. c #845F2D",
"f. c #83612E",
"g. c #88672E",
"h. c #846134",
"j. c #896232",
"k. c #846A33",
"l. c #81623A",
"z. c #866B39",
"x. c #8D6A3C",
"c. c #916D3E",
"v. c #A37F38",
"b. c #846744",
"n. c #8D6C44",
"m. c #836C4D",
"M. c #8D6E4A",
"N. c #936F45",
"B. c #906F49",
"V. c #8A7046",
"C. c #927148",
"Z. c #816F56",
"A. c #8A6F50",
"S. c #816E5A",
"D. c #837256",
"F. c #8A7354",
"G. c #84745B",
"H. c #88755C",
"J. c #86785D",
"K. c #8A7A5E",
"L. c #867962",
"P. c #8C7C62",
"I. c #897B66",
"U. c #907F63",
"Y. c #95805B",
"T. c #9B855E",
"R. c #AB8849",
"E. c #AC8B52",
"W. c #B08F52",
"Q. c #B29154",
"!. c #B5955C",
"~. c #BB995C",
"^. c #8F8064",
"/. c #8E826A",
"(. c #938265",
"). c #9B8663",
"_. c #9D8A65",
"`. c #94856A",
"'. c #988769",
"]. c #96886D",
"[. c #9A8A6C",
"{. c #918770",
"}. c #968A72",
"|. c #9B8D72",
" X c #9E9174",
".X c #9E937A",
"XX c #A38E66",
"oX c #A28E6A",
"OX c #A5926D",
"+X c #B79B66",
"@X c #BB9D64",
"#X c #A19376",
"$X c #A99773",
"%X c #AB9974",
"&X c #A1967A",
"*X c #A59A7C",
"=X c #AD9D79",
"-X c #B39D71",
";X c #BEA16A",
":X c #BEA471",
">X c #C19D5B",
",X c #C7A768",
"<X c #C2A46C",
"1X c #C5AA73",
"2X c #C5AA74",
"3X c #CCB179",
"4X c #A69C81",
"5X c #A99E81",
"6X c #ACA285",
"7X c #A5A48B",
"8X c #ACA68A",
"9X c #A7A88F",
"0X c #ADA98E",
"qX c #BAB08E",
"wX c #B1AE93",
"eX c #B4B194",
"rX c #BAB494",
"tX c #B9B69A",
"yX c #BDB99B",
"uX c #D0B985",
"iX c #C6BC98",
"pX c #C2BFA2",
"aX c #CAC19B",
"sX c #C8C7A8",
"dX c #D0C7A1",
/* pixels */
"sXpX8X|.[.|.&X&X X[.].(.(.(._.H.% 8.tXsX0X X|.|.&X&X X[.].(.(.).'.(.'.(.(.(.(.). X^., 8.yXsX8X|.|.|.&X&X|.[.'.(.'.(.(.'.[.H.C   ",
"sXrX4X].].].|.|.].].(.U.(.(.(.D.> 1.wXyX4X'.].].|.|.'.`.(.U.(.U.U.(.U.(.(.(.(.(.'.J.2 <.wXyX4X].'.[.|.|.].`.(.(.(.(.(.(.(.G.N . ",
"8X4X`.L.J.P.I.P.K.L.K.L.L.J.J.e.7 #..X6X].J.P.P.P.P.P.P.J.J.J.K.G.K.K.K.J.J.J.K.L.e.7 #..X8X`.K.G.P.P.I.P.P.L.P.G.K.J.P.P.y.C & ",
"|.].J.S.S.G.G.G.D.H.G.D.G.G.u.<.h W /.|.I.S.S.D.G.S.G.G.G.H.H.G.G.G.G.G.G.G.G.G.u.<.h R `.|.L.S.G.G.G.H.D.D.Z.D.G.G.D.G.G.r.N < ",
"|.'.L.D.H.H.H.G.G.G.G.G.G.G.u.8.h Z ^.[.P.G.G.G.G.G.G.G.G.G.G.G.J.G.G.G.G.G.J.H.u.8.h Y ^.|.P.D.G.G.G.G.G.H.n.N.D.L.J.G.P.r.C < ",
"|.'.P.D.G.G.G.G.G.G.G.G.G.G.D.4.k R (.[.L.G.J.G.D.G.G.G.G.G.L.G.G.G.G.G.G.G.H.G.D.4.k R ^.].P.G.G.G.G.G.G.F.n.n.F.G.L.G.G.r.N < ",
"&X|.I.G.t.t.H.G.u.u.G.L.u.Z.M.l.s W `.#XP.G.J.G.G.G.u.G.G.J.J.G.u.u.G.G.u.u.a.H.C.l.a Z ]..X^.G.G.G.u.u.G.G.r.Z.D.L.G.G.G.e.N < ",
"&X|.U.Z.t.t.G.G.u.u.F.D.r.m.c.j.- } }..XP.G.F.F.G.G.t.t.G.G.G.D.Z.r.G.G.t.u.G.M.c.f.i #.]..XI.y.G.G.u.u.G.G.y.t.G.D.H.D.u.<.N < ",
"|.[.C.V.r.t.L.G.t.r.M.x._ k.c.j.s Z `.|.I.D.N.V.D.L.t.t.G.G.u.Z.n.n.t.u.u.G.M.c.k./ % Z `.|.J.u.G.G.G.G.t.r.n.n.t.t.M.M.Z.8.M 1 ",
"[.(.C.j.m.Z.D.F.y.m.x.g./ / x.h.s Z ^.[.P.D.c.z.F.D.u.r.G.D.u.r.x.x.m.S.F.A.n.g.k.D i W ^.'.u.y.D.F.H.D.S.m.x.x.Z.A.x.x.A.4.N < ",
"|.(.z.( n.N.N.N.B.x.z.( / / k./ - I ^.[.(.F._ g.c.M.S.G.C.B.G.r.) g.x.N.N.n.k.( ( D - C ^.'.J.D.M.N.N.N.N.n.k.k.x.n.k.k.N.b.A > ",
"H.D.) G h.d.j.f.j.f.G D D D D g % v y.J.D.4.T G s.l.4.4.l.h.4.<.T G f.j.j./ / D / S & v y.J.q.2.l.j.f.d.j.f.G G d.f.G G d.d.f > ",
"Y A z f l s * * = - - % p i - % . o c K C b d = * % 3 k d 4 k p p i p f s s i p - & $ 2 N N 3 $ 1 4 4 i s a - % 4 s - - 4 4 & $ ",
"1 3 7 7 > M 1.1.=.Z R R C Z R N Z b 7 , , 2 7 Z <.e.,.Y Z Z W W W Z C C Z Z C Z C M x 2 $ w <.e.) T W W Z Z R R R Z V N N N N B ",
"W E P e * r.7XwX.X`.^.^.K.K.P.^.K.D.2.K q e K L.0XeX.X/.U.(.{.]./.^.K.Y.^.^.^.J.K.F.2.K @ 4.7XrX+XQ.[.{./.^.^.^.^.^.K.K.K.H.Z.e.",
"7.2.E ;.y..XiXaX6X X|.'.'.].[.[.).^.D.;.y @.^.*XyXyX6X X|.|.&X&X|.[.(.'.'.'.`.(.'.^.y.Q : r.rXiX3X@X$X.X|.[.|.[.[.'.).(.'.(.P.J.",
"r.e.E J.8XrX3X1XOX`.P.P.J.P.P.P.L.J.H.7.u w.0XiX6X&X#X[.[.].(.I.P.P.K.K.P.P.P.J.G.u.u.4.t b.;X3X-X[.`.P.P.P.P.P.G.G.K.P.G.G.J.G.",
"r.q.E K.eXaX:XW.T.P.G.G.G.G.G.G.S.G.G.r.J S.wXyX&X(.'.'.(.K.D.S.S.u.G.G.G.G.y.u.t.r.u.q.o.^ R.!.)./.G.u.D.u.G.t.t.t.u.u.r.e.u.G.",
"4.;.K w.&X6XOXT.K.G.u.t.G.G.t.t.u.r.7.;.u w.&X8X|.'.'.(.K.L.J.G.t.t.G.G.t.r.6.6.t.t.e.;.P U ;.M.J.P.K.G.u.u.u.u.t.r.t.r.4.2.u.u.",
"2.~ J :.`.|.`.^.G.G.t.u.u.G.t.r.r.e.4.Q J &.`.#X|.[.(.U.J.D.D.H.u.u.G.G.r.e.2.4.e.q.4.@.U u 9 B 4.G.S.t.u.r.e.e.t.t.t.q.2.2.e.t.",
"2.~ J :.(. X[.^.J.G.G.G.u.u.u.r.6.2.2.;.J :.U. X[.(.P.G.G.G.u.u.G.G.t.r.2.4.r.q.6.,... .o.J 0 c U &.>.9.t.t.6.6.t.t.7.2.2.2.6.6.",
";.Q J ;.^.[.(.^.J.G.G.G.r.r.r.r.6.2.2.Q J :.U.[.(.P.J.D.G.G.t.t.G.G.t.r.6.2.r.r.6.,.9.%.I J h 2 q t ] ..>.q.~ ;.q.4.$.~ $.$.~ Q ",
"E K 3 W K.'.K.H.J.G.u.t.u.r.4.4.e.r.5.~ J -.U.[.U.H.J.D.G.J.G.G.u.t.t.r.t.q.2.4.r.r.,.$.U J k % . $ r r j k J J K I J J J J K K ",
"P m < C J.(.K.G.G.u.t.t.r.q.2.4.r.e.4.&.K @.F.K.J.G.G.G.J.G.G.G.t.r.t.t.u.e.6.2.r.r.2.$.U u 0 N 1.y.b.^ Q R &.:.:.:.:.:.:.-.@.@.",
"P J , C G.P.P.u.t.t.t.e.4.4.e.r.7.2.>. .I U @.5.S.J.J.H.J.G.u.t.t.t.t.t.4.4.r.r.7.2.9. .B 5 @ w.7XrX@XQ._.{.(.(.U.U.(.(.P.K.Z.Z.",
"U K k b 2.r.G.H.G.t.t.r.6.4.r.e.2.#.X.| B c q K 5.G.S.D.G.G.u.y.t.t.r.e.2.2.r.e.2.#.| ] t y P I.tXiX3X@X=X.X|.].'.|.[.].].U.K.H.",
";.Q P c x W Z.P.L.G.u.t.u.e.4.$...| X.` 6 % $ 7 J ;.4.r.G.J.G.G.u.r.6.2.2.2.2.2.8.| M x r -.H.|.4X6X$XoX[.].P.P.P.P.P.P.P.G.u.t.",
"4.4.@.K x N 4.Z.r.t.t.q.q.6.7.5.0.9.>.9.,.W W R E U E 2.r.D.G.G.t.8.2.2.,.<.2.*.| ` 7 1 e :.U. X|.|.].].(.K.G.G.H.S.G.S.H.u.r.r.",
"r.e.2.$.q.<.R N E &.>...B +.D.(.P.P.K.^.].].`.P.t.:.U E 2.7.7.6.>.>.2.2.*...X. .n o X & q -.D.`.|. X[.(.P.G.u.u.G.G.u.t.u.t.4.2.",
"r.e.6.6.y.q.N , e B [ %.;.m.(.|.'.'.'.[. X.X|.`.G.q.@.o.@.Q Q W | | #.@.} ] |  .#.W W R E @.w.G.P.(.(.U.J.u.t.r.u.G.t.t.e.e.4.4.",
"4.4.r.r.7.4.U c 0 h x _ E.!.$X|.[.[.'.(.^.P.L.u.6.4.e.q.@.J z h v j 6 6 9 q q &.I.|.`.P.t.:.@.U -.5.H.P.J.G.t.t.u.u.u.r.4.4.e.r.",
"_ 2.r.e.2.W K m 0 Z u._.,X,X%X.X|.'.(.P.J.u.y.e.2.6.r.e.@.K x k 2 d S ;.S.S.:.t.|.*X|.`.L.e.&.P u U 4.S.G.u.u.t.t.r.r.7.5.4.e.r.",
"2.2.7.2.-.K k k f u.7XiX1X>XOX}.[.(.P.L.G.G.G.G.u.q.4.,.;.Q Q R 2 D v.@XrXwX.X`.[.'.^.K.G.G.r.4.$.Q E :.Z.J.G.t.t.r.6.4.r.r.5.2.",
";.Q ;.E K e 3 b Q '.rXaX1X!.oX`.(.P.G.G.G.G.G.u.u.r.2._ 2.6.7.Q 2 _ @XuXaXyX8X|.'.K.G.G.G.G.u.r.7.;.J I w.r.w.q.r.q.,.,.e.e.2.$.",
"K J P m 0 3 q @.y.OX:X2X-XoX[.(.K.J.G.D.u.e.6.6.t.r.2.2.r.r.4.~ 9 Z.qXiXqX*X|.].P.G.J.G.u.r.6.2.2.;.U J u u P U ;.=. .%.<.2. .| ",
":.;.;.$.K N J :.J.XX~.~.oX/.(.U.L.D.G.G.G.r.4.2.e.e.6.4.r.r.2.$.e S.wXyX*X].(.K.G.G.G.u.r.e.4.2.2.&.J O.t.S.:.-.7.6.9.>.2.6.0.0.",
"(.(.P.J.F.4.U +.r.(.oXOX[.(.P.G.J.L.H.H.J.G.r.e.4.4.e.r.7.2.9.| t w.&X6X|.(.P.G.J.G.G.r.6.2.r.e.9.] @ :.8XwX|.P.Y.H.u.r.t.G.}..X",
"[.[.].(.K.r.O.U e.P./.].(.P.G.G.Z.D.G.G.G.y.y.e.4.4.r.e.<.=. .] t ;.`.|.`.K.G.G.u.u.t.q.4.4.r.q... .q.}.eXpX5X[.'.'.K.H.K.^.|..X",
"P.P.K.H.r.;.K U r.G.P.P.P.G.G.r.4.4.t.r.7.4.2.4.e.r.7.,.>...+.P 0 R (.[.P.G.J.G.u.r.4.6.r.r.6.2.m t.8XtX5X&X&X&X].(.(.(.(.(.P.P.",
"Z.D.G.r.5.Q E +.:.w.r.r.u.G.t.e.4.4.r.r.4.2.2.4.y.e.<.,. .{ B e < N D.K.G.D.Z.G.u.r.6.2.r.q.2.Q 5 G.rXyX&X(.|. X(.(.(.(.'.P.G.G.",
"2.7.r.t.4.2.~ @.E O.U :.r.G.u.t.t.r.t.t.t.e.t.e.7.2.>. .' t 0 , < x Q :.4.5.5.7.G.G.t.e.6.2.2.Q J 5. X*X[.(.P.P.K.J.J.P.K.G.G.t.",
"2.4.e.r.4.3.3.2.E J e P <.q.q.q.r.r.r.r.t.t.r.6.;.+.| %.:.-.R v k 0 q J Q ;.Q 2.D.G.u.e.2.;.2.=.m @.K.'.'.P.G.D.G.G.G.u.G.t.t.t.",
"t.e.4.4.r.e.4._ _ R k > 2 v B E :.7.6.3.6.3.6.,.U y r @.P.`.D.4.U w 3 0 K U U @.u.u.7.2.3.2.9.| j E Y.[.^.J.u.u.G.G.G.u.t.t.t.r.",
"t.e.2.2.e.e.<.,.,.,.Y C Z W ;.;.@.Q Q Q W W Q ,.:.:.-.Z.(.[.U.G.:.U N b J J m U <.4.;.Q ~ W | ` 2 b y.H.Z.e.e.r.G.y.r.r.r.t.t.t.",
"4.4.2.2.3.2...| [ >.y.^.`.].].J.-.c x x 2 6 9 :.`.}.`.U.P.P.K.G.r.q.e.<.O.J x k v N J J J c 8 2 X < k C K @.:.6.7.7.4.6.r.u.t.t.",
"2.2.$.<.,.#.9.0.0.p.^.|.&X&X#X(.w.K h p D ) E t.|.&X X`.G.t.G.u.u.u.u.e.@.B h < > x @.:.:.:.E R W W b C Q -.;.~ Q Q Q ;.q.r.e.r.",
"~ $.| ` ` *.u.^.}.}.[.[.[.[.).'.(.Z.v S R.!.XXU.|.|.(.G.G.t.t.t.u.r.6.2.>.[ j < ; o.D.].|.'.(.P.^.^.K.K.P.G.-.J U K K @.2.2.<.2.",
"7.7.r.t.0.p.(.|.&X X|.'.(.P.U.(.[.H.M ! !.<XOX].[.(.G.t.t.t.t.t.r.e.2.*...{ j l ^ F.'.#X&X&X|.|.|.'.'.'.).P.:.I U I P U #.,.6.7.",
"K.T.!.+X|.}.|.[.[.'.^.J.K.G.K.K.P.D.P ;._.OX(.P.P.P.u.t.t.u.p.t.6.2.>. .o.B # H R.@XoX(.^.P.P.P.K.K.P.P.K.G.t.4.2.&.%.[ ` ..t.P.",
"`.XX~.;X$X|.}.`.(.K.G.G.G.G.G.G.G.r.@.;.L.I.L.u.r.Z.r.e.e.w.e.q.;.$. .{ B I q.(.@X@X_.P.G.D.u.u.D.G.D.y.G.G.u.e.3.$. .>.i.I._.OX",
"[.[.XX_.(.P.P.K.G.u.G.G.u.t.t.u.u.r.4.Q :.:.t.u.7.5.4.4.>.>.@.U K P P t $ 8.8XrX%XT.P.G.G.G.u.t.u.r.6.6.u.t.6.2.3.Q m p.9XtX<X~.",
" X'./.J.G.G.G.u.r.t.u.G.t.t.e.e.r.r.6.$.P V :.4.;.Q Q $.| { I L -.;.-.E $ e.rXyX XG.G.G.G.G.t.t.t.r.2.2.e.e.2.,.<.$.4 S.rXaX2X>X",
"[.(.P.G.P.G.u.u.t.t.y.u.u.e.4.4.t.r.6.,.%.| M b U K J J t B Y 5.P.`.(.Z.J :. X*X`.J.H.G.u.u.u.r.4.2.r.r.6.4.2.2.8.[ + _ ;X3X-XoX",
"K.J.D.u.D.S.r.r.t.u.t.t.t.e.4.4.e.r.2.=...{ 8 3 J E :.4.:.:.3.D.].[.).K.:.&.D.P.S.r.G.G.r.r.r.e.2.2.q.q.2.Q ~ $.| ` + D R.W.U.I.",
"U @.2.7.7.6.2.7.u.G.u.r.4.4.r.r.7.2.9. .+.B r w K 7./.|.].U.U.U.P.P.P.G.r.4.:.@.@.:.r.u.6.4.4.2.4.,.9.>.+.K J m 7 O o p F ! L L ",
"_ ^ ;.Q Q Q Q ;.e.G.r.e.2.2.r.e.2.#.| { P L _ b.3.J. X&X|.'.'.P.G.G.G.G.G.r.+.J e P 4.q.;.~ ~ ~ $.$.| { I U :.:.W Y Y C + r q.S.",
"~.R.^ r P J J P U -.4.4.2.2.7.4.9.| n h 0 l.W.!.).`.[.'.P.L.K.J.G.G.G.G.J.G.r.=.b k U +.E U U U J J B P U 7.`.|.`.P.K.y.] i.7XyX",
",X+XA.@.@.-.;.:.U U Q ;.;.Q Q W  .` h Y u.[.@X;X$X].(.K.G.G.G.G.G.G.u.G.G.G.a.q.N 3 e P J J J +.:.:.:.;.2.G.|.&X|.[.'.P...a.eXdX",
"OXOX'.U.P.U.(.P.u.:.@.K U N b k j M h u.0XrX%XT.).(.P.J.G.J.G.G.G.t.t.u.u.u.G.e.+.e k x J P K 4./.|.].(.^.^.U.P.P.P.P.u.X.t.+X3X",
"/.`.].'.(.'.[.`.L.q.@.K U U N p % z ) _.rXyX X^.(.P.J.D.J.G.G.u.u.r.t.r.e.r.t.4.@.K 0 p m E b.Y.|.&X[.[.(.^.G.r.D.D.G.t.| w.Q.>X",
"G.a.G.J.J.P.P.P.u.e.2.2.q.q.;.Y 2 F R.;X=X&X].(.P.G.G.G.J.G.u.t.t.t.u.r.4.2.4.4.2.W k 3 k l.W.@XXX].P.P.P.G.u.r.4.4.t.r.o.:.Y.XX",
"t.w.e.t.u.G.G.r.t.6.2.2.r.r.7.Q 7 ! !.;XoX^.(.P.G.G.J.G.J.u.u.t.t.t.r.e.4.2.2.2.3.Q k R u._.@X@XXXG.G.G.G.G.t.e.4.2.r.4.P E G.`.",
"G.u.t.t.t.t.u.r.6.2.2.2.4.2.4.Q m :._.OX[.(.P.G.H.G.J.H.u.t.t.t.t.r.4.4.r.e.2.2.2.Q q e.7XqX$XT.K.G.G.G.u.r.6.4.e.r.7.$.k Y J.'.",
"G.G.t.t.t.t.t.e.2.2.2.2.2.2.2.;.K :.P.].'.P.G.G.G.G.H.G.t.e.t.t.t.e.2.2.r.r.2.2.2.~ q G.yXsX&XH.J.G.G.G.u.e.2.2.r.r.5.W p C J.)."
};
