/* XPM */
static char *cb1657e2b8164502e96dd4c6ebd268dekNCKfVxdeQQd9cwO[] = {
/* columns rows colors chars-per-pixel */
"64 64 245 2 ",
"   c #170F00",
".  c #001E00",
"X  c #2D0B01",
"o  c #0C2600",
"O  c #182A04",
"+  c #002514",
"@  c #252C00",
"#  c #272907",
"$  c #2D2E01",
"%  c #372701",
"&  c #3C2D01",
"*  c #2C3100",
"=  c #293309",
"-  c #343402",
";  c #3B3301",
":  c #3B3904",
">  c #35370B",
",  c #3C340B",
"<  c #353A09",
"1  c #3D3A0C",
"2  c #2F261C",
"3  c #2A3314",
"4  c #373514",
"5  c #3E3B14",
"6  c #3C3C1B",
"7  c #2E3B20",
"8  c #3A3924",
"9  c #442C06",
"0  c #433303",
"q  c #453707",
"w  c #4C3C01",
"e  c #433B0E",
"r  c #4B3C0C",
"t  c #523400",
"y  c #523E04",
"u  c #513D0B",
"i  c #432E14",
"p  c #483516",
"a  c #443B14",
"s  c #4A3C14",
"d  c #453D1C",
"f  c #4B3C1A",
"g  c #543C17",
"h  c #463A24",
"j  c #4D3C22",
"k  c #523D23",
"l  c #593929",
"z  c #593E33",
"x  c #3D4504",
"c  c #3D4614",
"v  c #3E4127",
"b  c #474408",
"n  c #534302",
"m  c #54430C",
"M  c #59440F",
"N  c #5B4A0B",
"B  c #4D4116",
"V  c #434218",
"C  c #4D421B",
"Z  c #534215",
"A  c #594515",
"S  c #5C4B14",
"D  c #54441B",
"F  c #59461B",
"G  c #55491B",
"H  c #5C4C1B",
"J  c #5C5219",
"K  c #635406",
"L  c #75570A",
"P  c #614E15",
"I  c #614F1B",
"U  c #635215",
"Y  c #6C5216",
"T  c #63521D",
"R  c #71651A",
"E  c #454224",
"W  c #4B4424",
"Q  c #44442B",
"!  c #4C452B",
"~  c #45492F",
"^  c #4D4A2C",
"/  c #534524",
"(  c #5A4522",
")  c #564825",
"_  c #5B4B24",
"`  c #53462B",
"'  c #5B452D",
"]  c #544A2B",
"[  c #5B4C2B",
"{  c #4A522E",
"}  c #585328",
"|  c #5E502D",
" . c #4B4632",
".. c #5C4332",
"X. c #554C32",
"o. c #5B4D32",
"O. c #594938",
"+. c #555134",
"@. c #5D5134",
"#. c #5D543A",
"$. c #5C5838",
"%. c #624E24",
"&. c #61432D",
"*. c #614E2C",
"=. c #645323",
"-. c #695623",
";. c #6B5B24",
":. c #63522B",
">. c #68592A",
",. c #725D25",
"<. c #755828",
"1. c #624533",
"2. c #644A34",
"3. c #664938",
"4. c #654C3B",
"5. c #694E3D",
"6. c #635434",
"7. c #665933",
"8. c #6B5B34",
"9. c #62553A",
"0. c #6A553B",
"q. c #65593D",
"w. c #6B5B3C",
"e. c #755D3C",
"r. c #546722",
"t. c #6B6527",
"y. c #76662A",
"u. c #7C6B2C",
"i. c #6C6136",
"p. c #776437",
"a. c #72633C",
"s. c #7D693C",
"d. c #3D4441",
"f. c #4D4945",
"g. c #4D4B44",
"h. c #554D49",
"j. c #5C5645",
"k. c #55524B",
"l. c #5B544B",
"z. c #4E4F50",
"x. c #585553",
"c. c #5C5953",
"v. c #644D42",
"b. c #6C5542",
"n. c #645B43",
"m. c #6C5D43",
"M. c #655449",
"N. c #625B4E",
"B. c #6B5E49",
"V. c #715D43",
"C. c #735A49",
"Z. c #645C52",
"A. c #665C52",
"S. c #6D6045",
"D. c #6D634B",
"F. c #676A4D",
"G. c #736345",
"H. c #796545",
"J. c #74654B",
"K. c #78664B",
"L. c #77684D",
"P. c #7A694D",
"I. c #6C6551",
"U. c #696356",
"Y. c #726751",
"T. c #766953",
"R. c #786A56",
"E. c #7B6D55",
"W. c #7B6E59",
"Q. c #6C7250",
"!. c #7E7156",
"~. c #7D715A",
"^. c #77766B",
"/. c #845F2C",
"(. c #82612E",
"). c #87662C",
"_. c #896232",
"`. c #846A33",
"'. c #856937",
"]. c #836139",
"[. c #8C6B3B",
"{. c #916D3E",
"}. c #85743A",
"|. c #A37F38",
" X c #806B44",
".X c #8D6C43",
"XX c #826C4D",
"oX c #8D6E4A",
"OX c #936F45",
"+X c #906F49",
"@X c #867448",
"#X c #806F56",
"$X c #816F5B",
"%X c #847256",
"&X c #8A7354",
"*X c #8C7B57",
"=X c #83745B",
"-X c #88765C",
";X c #87785C",
":X c #89795E",
">X c #967651",
",X c #867A61",
"<X c #877862",
"1X c #8B7C62",
"2X c #907D62",
"3X c #93814F",
"4X c #9A845D",
"5X c #A88748",
"6X c #B08F51",
"7X c #B49457",
"8X c #8F8064",
"9X c #8D8269",
"0X c #938365",
"qX c #998665",
"wX c #9C8965",
"eX c #94866A",
"rX c #96896D",
"tX c #9A8A6C",
"yX c #958A70",
"uX c #9C8D72",
"iX c #9E9074",
"pX c #9E947A",
"aX c #A28D66",
"sX c #A6926D",
"dX c #A8946F",
"fX c #BB9D63",
"gX c #B79C69",
"hX c #A19275",
"jX c #A99876",
"kX c #A1967A",
"lX c #B49D71",
"zX c #BCA16B",
"xX c #C3A36A",
"cX c #C8AD75",
"vX c #A69C81",
"bX c #ACA185",
"nX c #A9A58B",
"mX c #BAB08D",
"MX c #B1AE93",
"NX c #B6B294",
"BX c #BCB99C",
"VX c #D0B985",
"CX c #C6BC97",
"ZX c #CBC19B",
"AX c #C8C5A5",
/* pixels */
"  R.BXAXnXiXuXuXkXkXuXtXeX0X0XwXtX=Xq I.BXAXnXiXuXuXkXkXpXtX0XqX0X0X0X0XwX0X0XeX0XtXhX1Xp I.BXAXnXiXuXuXpXkXpXtX0XqX0X0X0X0X0XwX",
"X I.MXBXvXrXeXtXuXuXtXeX0X2X0X0X0X%Xp D.MXBXvXrXeXtXuXuXrX0X0X2X0X0X2X0X0X8X0X0X1X0XtX=Xf D.MXBXvXuXeXtXuXuXeXeX0X0X0X0X0X0X0X0X",
"% B.pXvXrX<X1X1X1X1X1X:X:X:X:X=X<XP.f n.pXvXyX1X<X1X1X1X1X:X:X:X:X:X-X:X:X:X:X-X-X1X<XE.j n.kXvXrX-X<X1X1X1X1X1X<X<X;X=X=X:X-X:X",
"0 n.eXiX-X#X=X=X=X=X=X$X=X=X=X=X~.D.! 9.eXuX<X$X=X=X=X=X=X=X=X=X=X=X=X=X=X=X=X=X=X=XW.D.W q.eXuX1X$X$X=X=X%X=X=X%X&X=X=X=X=X=X=X",
"0 q.0XtX1X=X=X=X=X-X=X=X=X=X-X=X~.I.! 6.1XyX1X=X=X=X=X=X=X-X=X-X=X=X=X=X=X-X=X-X-X=X~.I.W 9.0XrX1X$X=X=X=X=X=X&X.X.X-X=X=X:X=X-X",
"0 q.0XtX1X=X=X=X=X=X=X=X=X=X=X=X=XG.k 9.0XyX1X=X=X=X=X=X=X=X=X=X=X=X=X=X=X=X=X=X=X=X=XG./ 9.8XtX1X=X=X=X=X=X=X%X.X.X&X=X=X=X=X=X",
"0 n.rXpX1X=XW.W.=X=X~.~.=X=X~.=XoX_.g n.yXhX1X=X=X<X=X=XW.=X=X=X:X=X~.~.=X=X~.~.=X=XoX_.g q.rXpX1X=X=X=X=XW.=X=X#XW.=X=X<X=X~.W.",
"& m.rXpX1X#XE.W.=X=XW.W.-X%XE.P.{._.u n.yXhX1X=X&X&X=X=XW.W.=X=X=X=X#XE.=X=X~.W.%X&XOX(.n j.eXpX1X=X=X=XW.~.=X=XW.#X=X=X%X%XW.W.",
": q.eXtX>X.XE.W.=X=X~.E.oX.Xs.s.{._.A 9.eXuX1X&XoXOX=X<XW.E.=X<X~.#X.X.XW.W.<X=X+X{.`.,.m #.eXuX=XE.=X=X=X=X~.%X.XoXE.$XoX+XW.W.",
"0 q.9XwXOX_.XX#X&X-X$XXX[.).(.y.[._.A @.1XyX1X%X[.[.oX=XW.W.=X&X~.E.[.[.XX#X%X&X[._.).;.r 9.8XtX<XE.=X&X&X=XW.XX[.[.XX#X[._.XXW.",
"9 9.8XqX@X(.OXOXOXOXOX[.`.).y.u.`.,.u 4.1XtX1X%X'.`.{.oX=XW.+X+X=XE.s.)..XOXOX.X'.u.u.,.r 4.1XtX<X~.oXOX+XOXOX[.`.`.[..X`.`.{.OX",
"9 o.!.@Xp.,./._././._.(.y.T ,.,.;.=.r ` %X*X=XL.8.,.(.].J.K.].].K.D.i.,.(._._./.,.;.y.-.r ' %X-XT.V.]././._._.(.,.,.(.(.,.;./._.",
"9 p ..2._ ( ( g t t y g w r s m u 0 % i ` 2.@.@.( D ( ' ] o.[ _ ] X.) ) _ %.A A / _ ( g i p 2.[ f 0 s g u A A g w u g A u g g g ",
"o.' k s d d p ` D.Q.m.#.9.4.@.@.#.9.2...k p e i p f / G B B f C s Z C f s W #.@./ f f f k h % h D.Y.a.8.q.j.9.@.4.9.9.@.#...o.2.",
"W.P.V.| E q 0 E.nXMXpXeX0X1X1X:X8X8X:X%XG.[ d % p F t.y.-.T H %.-.T S N n w.:X0Xw.N S :.m.9.X F.nXmXgX7XtXeXeX1X1XeX0X1X:X:X*X:X",
":X-XE.m.V ^ E.pXCXCXbXhXuXtXeXeXtXtXtX0X%Xm.h & G t.u.u.t.-.T T T >.8.8.S 8.8X:X8.n S _ e.9.X F.NXZXcXfXjXpXuXtXrXtXtXtXtX0X0X0X",
"-X=X~.D.x F.nXCXVXxXhXeX1X1X-X1X1X1X:X:X:XJ.! b t.u.R -.-.T T H S :.E.P.:.F 6.6._ A D D _ f o a.zXcXlXaX0X1X1X1X1X1X<X=X1X1X=X=X",
"=X=X~.D.x Q.MXZXxX6X4X1X=X=X=X=X=X$X~.=X=XE.! B y.u.T H J T I F u *.E.E.6.u ( ) F s B B / / # -.5X7XtX9X=X=X=X$X=XW.T.E.!.$XT.T.",
"~.W.P.w.x n.pXbXsX4X:X=XE.W.=X=XW.~.~.~.P.S.E V >.t.U N T H H F Z _ [ ) w _ J.D./ 0 r ) 7.w.E V T G.=X1X<X=X~.W.W.W.W.W.~.E.Y.G.",
"E.E.K.7.> +.9XiXeX1X-X=XW.~.=X=XE.E.E.Y.H.8.E e S ;.8.8.=.F D D Z D ) [ [ q.J.Y.9.W s ) m.B.! * o 8 C.=XW.~.W.E.R.E.W.W.W.T.H.G.",
"P.K.K.w.5 +.8XiXtX0X;X=X;X~.~.W.~.E.J.G.H.w.E : n ;.*X;X7.u Z D r [ J.W.T.B.X.] D.B.D p l.l.Q : 5 W 5.B.A.U.W.W.P.P.~.~.T.H.H.K.",
"w.w.w.6.5 @.8XtX0X8X;X=X;X~.~.R.E.T.K.G.K.q.W V >.P.0X1X7.w Z Z w @.W.1X<XY.o.o.Y.W.9.X.l.l.Q > a j l ..f.x.F.D.w.w.D.D.w.q.w.q.",
"W W W E e 6.:XtX1X=X;X=X~.~.~.E.J.J.T.E.H.w.a ] %X0X2X#X*.q w y w 6.L.=XW.W.T.J.J.K.J.J.J.0.! > 4 4 3 4 8 8 Q Q E W ^ ! E W E W ",
"1 < > > ; @.;X0X;X=X=X~.W.E.E.L.J.J.E.E.J.q.6 { !.2X:XW.w.*.6.*.Z [ Y.W.W.W.T.J.J.J.E.E.J.q.W = = < c b b w : - 1 a 1 1 b e 1 : ",
"D B 5 > @ +.!.1X;X=X~.W.W.T.L.J.T.E.K.J.A.k.E 5 ^ m.%X:X%XE.%XG.D / J.~.~.Y.o.o.Y.E.K.J.A.l.h % # V t.y.L K N N J H H J _ S m m ",
"F D a > @ E S.~.=X=X~.~.~.T.L.J.E.T.J.n.c.z.Q - @ E B.=X=X-X1XW.q.@.Y.W.~.D.[ ] J.E.J.n.l.f.8 < c r.R }.}.[.s.i.-.J T T T -.>.8.",
"D s q ; > 6 6 #.W.1X1X=X~.~.W.E.P.J.N.c.c.k.! e a f W #.H.W.=X1X%XE.~.W.L.G.w.w.G.J.A.l.O.E 4 c r.r.K y.>XwX0XXX:.y A Z n [ L.%X",
"s D ] ` d - O E G.#XW.T.Y.Y.Y.D.V.w.l.k.l.k.] G / C - 5 [ G.E.=X=X=XW.Y.G.V.G.J.D.B.l.f.W q , V r.t.i.XX0XiXtX:XS./ F D _ w.!.<X",
"& / D.D./ & ; s [ o.] +.{ { ~ ^ | =.[ [ @.:.=.-.T H B a V @.G.P.P.L.A.A.J.G.N.c.A.h.z , q ; - : b i.;XtXtX0X2X=XE.B._ _ B.T.~.~.",
"/ 9.T.T.9./ [ ( f d , * 3 < b m S S P P S P T -.=.H D s - d @.w.w.n.k.h.q.n.l.h.x.l.j.q.q.@.X.! s 0.;XtX0X1X:X=X~.Y._ [ L.~.E.T.",
"Y.J.J.J.Y.J.S.w.3...j a 4 B Y L K S U T T I H F F D s s e a C ! ) / ` ! h h l l l M.9XuXeX1X~.n.1.1.b.L.=X1X<X=X=XY./ / Y.~.J.G.",
"~.E.G.K.E.E.J.m.5.1.k C B U L ).s.a.>.I H S D g C s s s _ ) 1 1 W / s g -.V.$XR.C.$XuXkXuX0X<XR.C.5.1.5.J.~.=X;X~.Y.#.@.J.T.K.L.",
"K.H.G.G.P.G.b.2.' C p B ;.R L ).4X0Xi.n m y n Z D Z q D w.w.s s 0.q.h -.|.fXmXMXkXeXtXtX1X:X;X=XR.Y.V.w.] #.=X1X~.W.Y.J.K.K.E.E.",
"S.B.B.e.V.w.3.z j p , -.}.|.`.oX0X1X8.A *.6.@.[ D D ] @.w.w.[ o.V.e.j p.fXVXCXBXbXiXeX:X=X=X=X~.~.E.K.w.5 c D.E.T.T.W.W.J.B.T.E.",
"c.N.b.5.5.3.' f i & ; y.6XfXaX:XH.:.A [ K.E.E.n.f D D.J.` ( B.T.K.w.l #XmXCXMXvXhX0X1X=X=X=X=XW.J.G.H.w.C 4 E X.v.C.G.J.A.A.J.K.",
"j.l.4.1.2.../ s i k [ }.6XfXhXeXG.M w 6.%X1X=XT.@.o.T.T.o.o.T.~.J.q.l $XMXBXvXeX0X:X=X=X=X=XE.L.J.G.J.q.E < x G ' 2.w.w.j.k.q.w.",
"7.7.:.%.=._ Z D l 5.L.#Xp.}.0X0X:XG.G [ E.:X=X=XT.T.L.L.Y.J.J.J.A.l.z K.vXnXiX2X1X=X:X=X~.E.K.J.E.T.A.k.8 e t.y.-.%.=.:.] ] _ _ ",
"U U T I J A Z ( 1.C.=X=X7.q.*X0X:XW.6.6.E.=X=X=X~.T.m.w.T.E.K.n.N.h.z C.2XiXeX1X=X=X=X=X!.L.G.K.E.R.N.h.W J u.u.;.I S S A M A Z ",
"N S F A M m u k ..C.E.=X%X%X;X<X~.E.e.w.E.~.L.K.K.m.[ _ G.K.A.N.M.3.j q.0XtX2X<X=X=X~.E.J.J.W.T.J.B.b.4.t.R t.T U U N S S T H H ",
"[ [ D D 2.[ s p l 4.B.Y.E.~.=X~.~.E.L.P.E.E.J.G.H.m.[ [ m.B.k.f.z l s [ E.*X=X#X=X%X~.T.J.J.T.T.L.w.3.0.@Xs.t.J 8.i.8.:.%.H H H ",
"J.B./ / B.D.` 0 p k ` ] ^ q.E.;X~.~.W.E.W.W.R.R.!.E.G.m.N.l.8 3 # , d / ` 9.G.P.K.E.=X=XE.L.J.G.G.e.3.C.1X4X8.*.P.%X%XK.:.m m n ",
"=XY./ ) Y.E.[ q f D : $ O v n.Y.I.T.E.W.E.E.W.R.T.Q.a.n.k.f.#.+.X.E j a $ a @.w.7.G.~.=X~.E.L.V.D.b.' C.eXeX8.=.E.<X:XW.6.s [ 2.",
"~.Y./ C S.S./ g 7.8.Z ; $ 3 v E Q +.G.P.P.L.L.J.$.{ a > @ +.;X8X=XD.E $ : a E W V #.E.=XE.G.G.J.A.j.h w.0X0X8._ K.<X1X~.| / S.T.",
"~.R.@.[ e.a.[ [ B.B.X.h a < < - - C 6.w.w.w.q.} b c +.#.^ S.9XuX0XW.#.W o.X.5 * @ E n.D.m.7.w.q.k.f.h } !.%X[ ) D.%X=XJ.) ] T.~.",
"~.T.G.w.G.a.e.m.A.c.x.k.] S J T J F W E E c 3 O o { <XyXeX1X1X1X-X=XT.I.T.B.W * * 4 v E 5 1 : a h d , p ] ] - V m.P.P.m.C ` J.~.",
"W.T.J.G.B.B.J.B.l.x.l.j.:.U -.-.-.J B < O < _ :.] J.yXvXhXeX=XW.=X=X~.~.~.Y.+.8 3 * # 4 ^ #.#.#.6.q.q.9.@.| X.@.w.e.V.0.D ' D.~.",
"G.G.H.D.l.z.x.c.@.:.7.>.=.T T T T T H B o } 5X7XqX8XuXyX0X=X~.W.W.W.~.W.K.S.N.g.7 @ 2 3.=XeXyXrX0X8X8X8X:X:X:X%Xb.3.2.3.&.4.V.L.",
"K.G.w.V.E.T.c.#._ K U U T H H F H H T G o 7.7XcXdXrXtXeX-X~.W.W.E.W.E.T.J.B.l.f.8 C e.>X0XhXpXpXuXtXtXtXwX0XtX1XC.3.5.4.4.v.m.m.",
"1X%X[ y.7X7Xs.G } U J N m m F A m Z A C $ #.eXdX0X:X1X<X~.W.W.W.W.W.P.J.A.k. .d X <.6X7XwXeX0X<X1X1X1X1X<X:X1X=XW.J.V.m.N.h.h.g.",
"sX4XG.'.6X7X.X=.=.=.:.6.6.*.D D | o.H r ; +.<X2X<X$X#X#XE.T.R.R.R.Y.V.b.N.z.4 W R.wXfXfXwX1X=X=X=X~.=X#X!.!.=X=XW.E.H.B.l.A.^.^.",
"fXfXtX;X}.p.XXP.=._ D.E.W.K.) D Y.J._ 0 & j 0.K.~.~.P.K.K.J.A.A.M.b.0.5.v...9 D.nXNXjX4X:X*X=X=XW.W.W.W.L.K.E.W.J.G.G.e.1.W.kXBX",
"xXfXjX8Xq.@.=X%X[ [ Y.=X:X~.9.@.D.J.9.] / ( z v.D.J.V.w.V.m.l.h.1.&.1.3.2.l % Q.MXBXpX=X=X=X=X=XW.E.E.T.J.K.T.T.K.G.G.n.p =XNXAX",
"dXsXsX2X=X=X:XE.[ ) Y.~.~.~.E.B.] o.B.J.V.n.l.k.+.o.3.b.5.5.v.3.l f %.:.=.F & n.hXvX2X<X=X=X=X~.~.E.J.K.E.E.P.K.G.J.U.z.2 w.gXVX",
";X:X:X=X=X=X=XP.) ] T.~.W.E.~.J.] o.Y.$XJ.B.Z.h.z f ' 1.1.3.2.&.f w S T J A - X.$X1X#X%X~.=X~.T.E.T.G.G.T.Y.V.w.w.n.k.d.+ H |.7X",
"a j O.M.K.K.E.G.D ' E.;X~.E.J.J.Y.Y.K.J.A.N.v.4...l k D =.>.:.%.N m F H F G r ` b.C...#.E.~.W.H.K.K.H.J.U.A.v.1.f - 3 O . ; -.p.",
"F.F.H.].e.0.w.2.s W J.W.E.T.G.J.E.R.J.n.l.h.4.0.5.2.g Z U -.P I 8.6.H Z D F B g l k - h n.Y.w.w.m.w.w.9.k.h.v.3.#.#.+.] +. .h 8 ",
"MXmXgX5XV.l h - $ $ V #.B.L.H.J.K.J.A.l. .X.n.a.<.L U H T H n *.W.K.*.w Z D m r g W s d ! ^ E ` 4.2.d 5 z 3.2.L.0XyXeX1X:X!.N.f.",
"AXCXcX7XoX#.@.+.#.@.E ^ 0.e.w.q.q.n.k.g.! _ i.H.[.'.-.T H H [ w.E.W.w./ F F :.[ D s / f a - * d ..4.#.q.b.H.H.;XuXkXuXtXtX1XU.x.",
"cXcXlXsXeX1X:X*X8X<XE.D.0.1.W 5 c 6 8 Q O.7.y.u.*X&X>.n n *.L.P.7.6.J.D.D / J.Y._ s ' ..j 5 - 6 X.J.9XyXeX1X1X0X8X<X1X1X1X=XU.x.",
"fX7XeX9XrXtXeXeXtXtX<XT.b.O.] E v < o C  X>X@X3X0X0XH._ u 9.%X=X6.2.E.E.#.@.Y.D.o.[ 5.5.) f 5 [ '.2XhXkXuXrXtX1X=XW.=X%X=XE.c.z.",
"aXqX*X~.~.<X1X1X1X:X~.T.V.B.J.D.S.+.O } 6X7XaX0XqX0X;XG._ *.W.-XT.Y.E.W.E.D.o.) 7.m.V.w.` f f p.6XfXaXrX1X1X1X-X~.E.K.K.~.R.+.8 ",
"0X:X=XR.T.T.~.=X=X~.E.T.K.K.E.W.P.w.3 >.7XxXjXrX0X8X1X!.:.[ E.=X~.W.W.W.~.Y.o.` B.H.H.w.) @.~.wXfXfXqX1X=X=X=XE.~.J.J.J.E.D.! * ",
"0X0X=X=XW.W.W.W.~.E.J.H.G.G.K.K.G.w.4 $.qXdXtX0X:X-X;XE.[ _ Y.~.W.W.W.W.J.J.J.D.G.G.G.e.l E.nXmXdX4X:X-X=X=X~.E.J.K.E.T.P.m.E @ ",
"0X2X<X=XW.W.W.E.W.E.J.e.a.G.G.G.G.w.a +.<XtX0X0X-X=X-XE.[ [ Y.~.W.W.W.T.G.H.W.E.K.V.G.0.l <XBXAXkX-X=X=X=X=X~.T.G.G.E.W.J.q.c @ "
};
