/* XPM */
static char *_df1b46c944744b5cd5b699fda554edeKHz6SosMKvOKgDz5[] = {
/* columns rows colors chars-per-pixel */
"64 64 160 2 ",
"   c #370000",
".  c #3B0000",
"X  c #351600",
"o  c #361900",
"O  c #3B1C00",
"+  c #362006",
"@  c #3D2300",
"#  c #3B250A",
"$  c #3E290E",
"%  c #420000",
"&  c #440B00",
"*  c #441300",
"=  c #451B00",
"-  c #412400",
";  c #4C2300",
":  c #452B01",
">  c #4C2D01",
",  c #452E0B",
"<  c #482F0A",
"1  c #532E00",
"2  c #4E3101",
"3  c #47300E",
"4  c #49310B",
"5  c #523403",
"6  c #53370A",
"7  c #55390D",
"8  c #432C11",
"9  c #463013",
"0  c #4B3416",
"q  c #4B361A",
"w  c #4D3B1C",
"e  c #553A11",
"r  c #593D14",
"t  c #533D1E",
"y  c #583F1D",
"u  c #533E22",
"i  c #52401E",
"p  c #5B421E",
"a  c #534122",
"s  c #5E4522",
"d  c #5B472D",
"f  c #5B482E",
"g  c #594730",
"h  c #5D4B32",
"j  c #604723",
"k  c #614926",
"l  c #654F2D",
"z  c #6E552F",
"x  c #71562D",
"c  c #74592F",
"v  c #624F34",
"b  c #625036",
"n  c #6D5531",
"m  c #655339",
"M  c #6B563A",
"N  c #6D593B",
"B  c #705731",
"V  c #725A34",
"C  c #735D3E",
"Z  c #76603F",
"A  c #725F41",
"S  c #756243",
"D  c #7E6641",
"F  c #75654C",
"G  c #7A674D",
"H  c #756A4C",
"J  c #796848",
"K  c #7B6B52",
"L  c #7E7056",
"P  c #7F7359",
"I  c #816944",
"U  c #9B7A44",
"Y  c #827156",
"T  c #83735A",
"R  c #89775B",
"E  c #87785D",
"W  c #8B7B5E",
"Q  c #9B7F50",
"!  c #927F5E",
"~  c #877960",
"^  c #8B7D62",
"/  c #907F63",
"(  c #A58247",
")  c #A68349",
"_  c #A8864C",
"`  c #AD8A4F",
"'  c #AA8850",
"]  c #AF8E58",
"[  c #8D8166",
"{  c #8D846A",
"}  c #938365",
"|  c #998766",
" . c #9B8966",
".. c #95856A",
"X. c #98876A",
"o. c #968A6C",
"O. c #9C8C6C",
"+. c #9A906F",
"@. c #968D71",
"#. c #9B8E70",
"$. c #9D9274",
"%. c #9C9278",
"&. c #9C9A7D",
"*. c #A18E6B",
"=. c #A5926F",
"-. c #B39A6C",
";. c #A49573",
":. c #A89671",
">. c #A69977",
",. c #AB9A76",
"<. c #A19679",
"1. c #A49B7B",
"2. c #AB9E7A",
"3. c #ABA17E",
"4. c #B8A072",
"5. c #C6A56C",
"6. c #C3A775",
"7. c #C2A877",
"8. c #C4AA79",
"9. c #C8AF7D",
"0. c #C9B07F",
"q. c #AA9D80",
"w. c #A3A283",
"e. c #ACA584",
"r. c #A7AA87",
"t. c #ACA789",
"y. c #A4A988",
"u. c #ABAD8C",
"i. c #B1A784",
"p. c #B1A984",
"a. c #B4AD8B",
"s. c #ADB28E",
"d. c #B3AF93",
"f. c #AEB391",
"g. c #B8B497",
"h. c #B7B599",
"j. c #BBB699",
"k. c #CCB382",
"l. c #C5B892",
"z. c #C5BD9C",
"x. c #C9C19F",
"c. c #CAC5A4",
"v. c #C9C7A9",
"b. c #CDCBAC",
"n. c #D2CDAC",
"m. c #D3D0AF",
"M. c #D8D1AD",
"N. c #CCCEB1",
"B. c #D0CFB1",
"V. c #CFD0B2",
"C. c #D3D2B3",
"Z. c #DAD5B3",
"A. c #DAD8B7",
"S. c #DCDBBA",
"D. c #E1DAB4",
"F. c #E0DEBC",
"G. c #E2E0BE",
"H. c #E6E5C2",
"J. c #E8E7C4",
"K. c #ECECC9",
/* pixels */
"q u s j j s j s j s j s j j s s j j s j s j s j s j s j j j s s j s s j s s j s s s s s s s j s j j j s s s s s s j s j s s s s ",
"q q t p y y y y y y y y t p s s s a y y y y y y y y y t t p p j s p p t y y y y p p p t p p a s p p y y p p p t t p y y y p s s ",
"q q 8 # # $ $ $ $ $ # # # 8 p s p q 3 # # # , $ $ $ , # # 9 a s t q 8 # # $ $ # # $ $ $ + 9 p s u q 8 # # $ # $ # # , # # 8 p s ",
"q a z V B B z n x n x B V z k y 0 i m V x n n n z x n z B x k p q u n V B B B x B z z B V z k p q u z V x z V V V x n n z z k s ",
"$ n ) ] ' _ _ _ _ _ _ _ ` U c 0 $ m ) ] ' _ _ _ _ _ _ _ ' U c 0 $ m ) ] ' _ _ _ _ _ _ _ _ ( c 0 $ z ) ] ' ' _ _ _ _ _ _ ` U c t ",
"o V ] 5.8.4.8.4.8.7.7.7.9.-.D : o V ] 4.6.8.8.4.7.6.7.8.9.-.D : O N ] 5.6.8.6.6.8.4.8.8.9.-.D : O V ] 5.8.4.8.4.7.7.7.8.9.-.D 2 ",
"# V ' 8.z.x.z.z.z.z.z.z.c.a.Y = O B ' 6.l.z.z.z.z.z.z.z.c.a.Y = O B ' 4.l.x.z.z.x.z.z.z.c.a.K = o B ' 8.l.c.j.z.z.z.z.z.c.a.K > ",
"+ V _ 4.z.N.N.N.v.v.b.N.C.h.P * O n _ 8.z.N.N.N.v.v.N.N.C.h.L * O n ' 8.z.N.N.v.v.v.b.V.V.h.P * O n _ 4.c.N.N.b.v.v.b.N.B.g.T ; ",
"# n _ 8.z.b.S.A.v.v.A.S.N.d.L = O n _ 7.z.v.S.Z.v.v.Z.S.B.d.Y = O n _ 4.j.b.S.A.v.v.A.S.V.d.L = O n _ 6.z.N.S.A.v.v.A.S.N.d.L ; ",
"+ n _ 8.x.V.A.S.b.N.A.S.Z.j.P * O n _ 8.c.C.S.S.n.N.A.S.Z.j.T X o n _ 9.c.C.S.A.b.N.A.S.Z.j.T * o n _ 8.z.C.A.S.B.N.A.S.Z.h.T = ",
"+ B ) 9.M.S.N.b.S.A.b.C.F.v.~ . o z ) 9.M.S.v.b.A.A.n.N.S.v.^ . o B ) 0.M.S.N.b.A.A.b.b.G.v.^ . o z ) 9.n.S.N.b.A.A.b.n.F.n.^ * ",
"# n ) 9.m.S.b.b.A.A.b.b.F.v.^ . o z ) 9.M.S.N.b.A.A.b.B.F.v.^ . o B ) 0.M.S.b.b.A.A.b.m.S.v.^ . o z ) k.M.S.v.N.A.A.b.B.S.v.~ * ",
"+ x _ 8.x.N.A.A.b.b.A.S.Z.j.L * O n _ 7.z.B.A.A.b.b.A.S.Z.h.P * O n _ 8.x.V.A.A.b.b.A.A.Z.h.P * O n ) 8.x.C.S.Z.b.b.A.S.Z.g.P ; ",
"# n ) 8.x.V.A.A.b.b.A.S.C.h.P * o x _ 8.z.N.S.A.b.N.A.A.C.h.P * O n ' 4.x.V.S.A.b.b.A.S.C.h.P * O n _ 8.z.B.Z.S.b.b.A.S.Z.g.P ; ",
"# n ) 9.M.S.b.b.S.S.b.b.S.c.^ . o n ) 9.M.S.N.n.A.A.b.b.S.c.^ . o z ) 9.M.S.b.b.S.A.b.b.S.c.^ . o n ) 9.M.S.b.N.S.A.b.b.S.v.~ * ",
"+ B ) 9.Z.S.b.v.A.A.b.b.H.b.[ . o n ) 9.Z.S.b.b.A.A.b.B.H.b.^   o z ) 9.M.S.N.b.A.A.b.V.G.m.[   o z ) 9.C.S.n.v.A.A.b.b.H.b.^ & ",
"+ V _ 8.x.N.A.Z.b.b.A.F.H.b.^   o n _ 8.z.N.A.Z.b.b.A.F.H.b.^ . o z _ 8.x.V.A.Z.b.b.A.F.J.v.^ . o z _ 8.z.C.A.Z.b.b.Z.F.J.b.^ & ",
"+ B ) 8.z.C.G.S.b.b.A.S.H.b.^ . o B _ 8.z.C.F.S.b.b.Z.F.J.v.^   o z _ 8.z.C.G.S.N.v.Z.F.J.v.^ . o n _ 7.z.B.F.F.N.v.Z.F.H.v.^ & ",
"# B ) 9.n.S.G.F.S.Z.v.m.G.b.[ . o z ) 9.n.S.H.S.S.Z.v.m.F.b.[ . o z ) 9.n.S.G.G.S.Z.v.m.G.b.^   o z ) 9.n.S.H.F.F.Z.v.B.H.b.^ & ",
"+ n ( 0.M.H.S.S.G.S.b.n.G.b.W . o z ( 9.Z.H.S.S.G.S.b.n.H.v.[ . o z ( 0.Z.G.A.S.F.S.n.N.G.b.[ . o z ( 9.Z.H.A.S.F.S.N.n.S.b.^ & ",
"# x ) 0.Z.F.b.b.S.G.A.S.J.v.^ . o n ( 0.M.F.b.b.S.G.A.S.H.v.^ . o z ) 9.M.G.N.n.S.F.S.S.G.b.[ . o z _ 0.Z.F.b.b.A.G.A.S.H.v.[ & ",
"+ x ) 0.Z.F.N.b.Z.G.G.G.J.v.^   o x ( 0.Z.F.N.b.Z.G.G.G.J.v.^ . o z ) k.Z.G.N.b.S.F.G.G.J.b.W . o n U k.Z.F.n.b.A.G.G.G.J.v.^ & ",
"# n ( 0.M.H.S.S.S.G.F.G.H.b.^   o z ( 9.Z.H.S.S.S.G.G.G.J.v.^   o x U k.M.G.S.A.S.F.F.G.H.v.^ . o z ( 9.M.H.S.A.G.F.F.G.H.b.^ & ",
"+ z ) 9.n.F.F.G.F.F.F.G.G.b.[ . o z ( 9.n.F.F.G.F.F.G.G.G.b.^ . o x ) 9.n.F.G.G.F.F.F.G.H.v.^ . o z ) 9.M.F.F.F.F.F.F.G.H.v.^ & ",
"# B _ 8.z.C.A.G.G.F.F.F.J.b.[ . o n ) 8.z.m.S.G.G.F.F.G.H.b.W . o B _ 6.z.C.A.F.G.G.S.D.J.b.^   o x _ 7.x.V.A.G.F.F.S.G.H.b.W & ",
"+ B _ 8.z.C.A.G.F.F.F.F.G.b.W . o B ) 8.x.C.A.G.S.G.S.F.H.b.[ . o n ` 6.z.C.F.G.S.F.G.G.G.b.[ . o x _ 7.z.m.S.G.F.F.F.F.H.b.^ & ",
"+ z ) 9.n.F.F.F.F.F.F.F.J.v.[ . o n ) 9.n.S.G.S.F.S.G.G.J.v.^ . o n Q 9.n.F.F.F.S.G.F.G.G.b.W . o z ) 0.n.S.F.G.D.F.F.G.J.v.^ & ",
"# z ( k.Z.J.G.G.F.G.G.G.J.v.^ . X x ) k.Z.J.G.G.G.G.G.G.J.v.^   X x ( 0.Z.H.F.F.F.G.G.G.K.n.W   o z ( 0.Z.J.G.G.G.G.G.G.J.v.^ & ",
"o V ) k.D.K.J.J.H.H.H.J.K.M.[   X n _ k.D.J.H.H.G.J.J.J.K.M.[   X z _ k.D.K.H.H.H.H.H.J.K.m.^ . X x _ k.Z.K.J.G.H.J.H.J.K.M.[ . ",
"# z U 4.z.n.v.v.b.b.v.b.C.j.T * O l U 4.x.n.b.v.b.b.v.b.M.j.T = O z U 4.z.n.v.n.b.v.b.b.M.j.T * @ l U 4.x.b.b.b.v.v.v.b.M.j.T ; ",
"q a x I R [ ^ ^ W ^ ^ ^ [ T M 7 0 a c I E [ ^ ^ W ^ ^ ^ [ T M 7 0 a x I E ^ ^ ^ ^ ^ ^ ^ [ T M e 0 a x I E [ ^ ^ [ ^ ^ ^ [ T M r ",
"w q q : & . . . . . . . . = p p t q 0 ; & . . . . . . .   = p p t q 0 : & . % . . . . .   = r j u q 0 : & . . % . . . .   = r s ",
"q q , : - - - - = O O @ O > y s q q , : - - - - = O O O O > y s u q < : - - - - O O O O = : p s u q , @ - - - - O O O O O : y j ",
"q u h m v v v v m m M m b h s p t u h b v v v b m m M m b h s p q w h b b h h b m M M m m h s p q u h b b b h b m M M m m v j p ",
", h Y W E R Y R } } } } ^ Y M e , h L W E R Y R } } | } [ Y M 7 < h Y W R R T R ! } } } W G n r 4 h L W R R Y R ! } } } / G m r ",
": b R X.X.O.$.<.,.:.,.:.=.W N 6 : b R O.X.O.$.;.,.:.2.=.=.W N 6 : b R O.X.O.$.;.,.2.,.:.;.} N 5 : b R O.X.O.$.;.,.,.2.:.=.! C e ",
"3 h K } ..<.r.u.r.q.,.:.:.} V 5 , h K [ ..<.r.u.r.q.,.:.:.} V 5 , h L / X.$.r.s.y.q.,.:.=.} C 5 < h K } X.$.r.u.t.q.,.:.:.} N 7 ",
"3 h K ~ / %.r.f.u.t.3.,.,. .C 5 > h K ^ ^ $.r.f.u.t.3.,.:.| C 5 , g K ^ } $.r.f.u.t.q.,.,.| C 5 < f K ~ } $.r.f.u.t.q.,.,. .C 6 ",
", h K ~ R / #.w.f.f.t.2.2. .Z 2 , h K ~ ~ ..+.q.f.f.t.2.2.*.C 2 : h K ^ T } $.3.f.f.t.2.2. .C 5 : h K ^ ~ ^ $.e.f.d.w.2.2. .Z 6 ",
"9 h F R T R ~ @.w.w.w.<.2.*.Z 2 , h G T T T ~ @.w.w.w.<.2.*.Z 2 < f G T T T ~ @.w.w.w.;.2.*.Z > 4 f H T T T ~ #.w.y.w.;.2.*.Z 6 ",
"0 a M H K T T T [ { ^ X.,.*.Z 2 4 a M J K T T T [ [ ^ ..,.*.S 5 0 a M F K Y T E [ [ ^ ..,.*.C 5 0 a M J K T T ~ [ { ^ ..,.O.Z 6 ",
"9 f S R [ } } ^ W R Y ^ :.*.Z 5 4 d J R ^ ..[ ^ W R T ^ :.*.Z 2 < f J R [ { } ^ ~ R T ^ :.*.S 5 , f J R ^ ..} ^ R R Y } :.*.Z 6 ",
"- M } ,.3.3.2.>.:. .} } ,.*.Z > - m } ,.1.3.2.>.:.O.} } ,.*.Z > - m } :.2.3.1.>.:.O./ } ,.*.Z > - m | :.1.3.1.>.:.O.} } :.=.S 6 ",
"@ M  .2.3.e.a.t.3.=.O.X.,.O.C 2 - M  .2.3.t.a.p.2.:.X.O.,.O.C 2 - M  .2.3.e.a.p.2.:.*.O.,.*.C > @ M  .2.3.e.a.p.3.=.O. .,. .Z 6 ",
", h T X.O.1.s.s.<.=.=.:.,.} C 5 : h T ..O.1.f.s.>.O.:.:.:.} C 5 : h T X.O.1.f.s.>.*.:.;.;.} A 5 : h T X.O.<.f.s.>.O.;.:.:.X.C 7 ",
", g F ~ } $.r.y.@.X.,.2.#.E M 6 4 g G ~ } $.r.r.@.o.,.,.#.E M 6 4 h G ~ } %.y.y.@.X.,.,.$.T M 6 4 h F E ..$.r.y.@.X.,.,.#.T M e ",
"3 h G ^ X.$.<.$.~ ^ 2.q.} G m 7 4 h G ^ X.$.<.$.~ ^ 2.2.X.G m 7 4 h H ^ X.#.<.$.~ ^ 2.2.X.F m e 4 g K ^ ..$.<.$.~ ^ 3.3.X.G n y ",
", h K ~ ......} ^ ..e.2.#.T M 6 , h K ^ [ X...} ^ ..e.2.@.T M 6 4 f K ~ ....X./ ^ o.3.e.O.T n 7 4 h K ~ } X...} ^ o.1.3.O.Y M e ",
"3 h G T T E T ^ ;.3.2.2.e.+.S 5 4 h H T ~ ~ T ^ <.3.2.3.e.O.S 2 < g G ~ ~ E T ^ $.2.3.2.e.+.S 5 , g G T E E T ^ <.2.2.3.3.$.S 5 ",
", h T ../ W E X.e.p.:.:.i.<.J > : h T } / ~ R X.e.i.:.:.p.<.J > : v T / / ~ E X.e.p.:.:.e.;.J > : v T ../ W E X.e.i.:.:.i.>.J 5 ",
"@ M  .,.=.=.=.,.p.e.} ^ q.$.S > - M  .,.=.=.=.,.i.3.} / w.@.J > - M  .,.:.*.:.,.p.3.} ^ 1.$.S > @ M  .,.=.=.=.,.i.e.} ^ <.$.S 5 ",
"@ M } ,.2.,.:.:.2.;.[ { q.&.S > - m | ,.,.,.:.:.3.<.[ [ q.&.S > @ M  .,.,.,.:.,.3.<.{ { q.&.J > - M } ,.,.,.:.,.2.;.[ { w.&.S 5 ",
"3 h Y X.:.:.| ^ ^ ..@.w.f.w.H - : h L X.:.:...^ [ ..@.q.f.y.H ; - h T X.,.:.} ~ ^ ..$.w.f.w.H ; : h P X.:.:.X.~ / { @.q.f.w.H 1 ",
"3 h G } ,.>.~ K K ^ %.t.f.w.H : > h F ..,.:.^ K K ~ %.t.u.w.J > > h G } >.:.~ K K ~ %.r.f.w.H : : h H } >.:.^ K K ^ %.e.f.w.H 5 ",
", h Y O.3.1.[ K K ~ ..%.>.o.S 5 : h Y O.q.2.^ K K ~ O.$.&.o.S 2 > h K #.3.2.^ K L ~ ..<.>.o.A 2 : h Y O.3.2.[ K K ^ @.<.<.o.A 5 ",
": b R +.3.3.o.^ ^ / ..X.X.R M 6 : v E ;.q.1.o.^ ^ } ....X.R M 6 : b T ;.q.2.@.^ ^ / } ..X.R M 6 : b R ;.3.1.o.^ ^ / } X.o.R M r ",
"- m ^ #.$.;.3.3.,.#./ T ~ K n e : b ^ $.#.<.1.2.,.*.^ T R K M 7 : b ^ <.#.:.1.2.:.+.! T ~ Y n e - m / $.#.;.1.2.1.O./ T ~ Y b r ",
": m ~ #.X.+.3.3.,.:.} ~ ..T M 6 : m ^ #.X.#.2.i.2.=.} [ ..E M 6 : b ~ #.X.#.e.i.,.=.} W [ R M 6 : m ~ #.X.$.3.e.,.=.} ~ / ~ M r ",
", h T ..O.$.;.$.#.O.:.,.e.;.S > : h T } #.$.<.=.O.*.=.,.e.;.S > : h L ..O.;.<.<.+.=.=.,.i.$.J > : h T ..#.<.:.<.#.*.:.,.i.;.S 5 ",
"0 f S T ~ } } W R !  .:.2.#.A 5 4 g S Y / / / / R W  .=.3.o.Z 5 0 f S T ~ / / R T }  .:.2.o.S 2 0 d A T ~ / / W E ! | :.2.O.A 6 ",
"p j v M N N N M M M A S J S l p p s b M M C C C V N C S J S l p p s l M N C M M M M Z S J S l p y j v n C C N N M N Z S J S l p ",
"s p y e 7 6 7 i e e 6 2 > 5 y s s p p r 7 7 6 7 r e 7 5 2 4 i s s p y r 7 7 7 e e e 4 2 > 5 i s j p y r 7 7 7 7 7 r 7 2 2 5 y a ",
"u w t e w i p a p w w e q q q t i a p p p p p p p p s p i w t w w t w w w t p s i i t 0 0 t q u i a s p p p p p p p p p i w t t ",
"q q q q i a s s i w w q w q q q w a s j j j s s j j j a i w w q q q q w w a s s i w q q q q q w w t s j s j j s s j s s a w q q "
};
